HIERARCHY
ROOT hip
{
  OFFSET 0 0 0
  CHANNELS 6 Xposition Yposition Zposition Zrotation Yrotation Xrotation
  JOINT abdomen
  {
    OFFSET 0 20.6881 -0.73152
    CHANNELS 3 Zrotation Xrotation Yrotation
    JOINT chest
    {
      OFFSET 0 11.7043 -0.48768
      CHANNELS 3 Zrotation Xrotation Yrotation
      JOINT neck
      {
        OFFSET 0 22.1894 -2.19456
        CHANNELS 3 Zrotation Xrotation Yrotation
        JOINT head
        {
          OFFSET -0.24384 7.07133 1.2192
          CHANNELS 3 Zrotation Xrotation Yrotation
          JOINT leftEye
          {
            OFFSET 4.14528 8.04674 8.04672
            CHANNELS 3 Zrotation Xrotation Yrotation
            End Site
            {
              OFFSET 1 0 0
            }
          }
          JOINT rightEye
          {
            OFFSET -3.6576 8.04674 8.04672
            CHANNELS 3 Zrotation Xrotation Yrotation
            End Site
            {
              OFFSET 1 0 0
            }
          }
        }
      }
      JOINT rCollar
      {
        OFFSET -2.68224 19.2634 -4.8768
        CHANNELS 3 Zrotation Xrotation Yrotation
        JOINT rShldr
        {
          OFFSET -8.77824 -1.95073 1.46304
          CHANNELS 3 Zrotation Xrotation Yrotation
          JOINT rForeArm
          {
            OFFSET -28.1742 -1.7115 0.48768
            CHANNELS 3 Zrotation Xrotation Yrotation
            JOINT rHand
            {
              OFFSET -22.5879 0.773209 7.07136
              CHANNELS 3 Zrotation Xrotation Yrotation
              JOINT rThumb1
              {
                OFFSET -1.2192 -0.487915 3.41376
                CHANNELS 3 Zrotation Xrotation Yrotation
                JOINT rThumb2
                {
                  OFFSET -3.37035 -0.52449 3.41376
                  CHANNELS 3 Zrotation Xrotation Yrotation
                  End Site
                  {
                    OFFSET -1.78271 -1.18214 1.43049
                  }
                }
              }
              JOINT rIndex1
              {
                OFFSET -7.75947 0.938293 5.60832
                CHANNELS 3 Zrotation Xrotation Yrotation
                JOINT rIndex2
                {
                  OFFSET -2.54057 -0.884171 1.56538
                  CHANNELS 3 Zrotation Xrotation Yrotation
                  End Site
                  {
                    OFFSET -1.62519 -0.234802 1.16502
                  }
                }
              }
              JOINT rMid1
              {
                OFFSET -8.24714 1.18213 3.41376
                CHANNELS 3 Zrotation Xrotation Yrotation
                JOINT rMid2
                {
                  OFFSET -3.10165 -0.590103 1.0647
                  CHANNELS 3 Zrotation Xrotation Yrotation
                  End Site
                  {
                    OFFSET -2.48547 -0.328903 0.83742
                  }
                }
              }
              JOINT rRing1
              {
                OFFSET -8.82822 0.546677 1.51678
                CHANNELS 3 Zrotation Xrotation Yrotation
                JOINT rRing2
                {
                  OFFSET -2.60934 -0.819778 -0.0198488
                  CHANNELS 3 Zrotation Xrotation Yrotation
                  End Site
                  {
                    OFFSET -2.33842 -0.294052 0.168128
                  }
                }
              }
              JOINT rPinky1
              {
                OFFSET -8.27202 -0.0477905 -0.4584
                CHANNELS 3 Zrotation Xrotation Yrotation
                JOINT rPinky2
                {
                  OFFSET -1.82734 -0.647385 -0.700984
                  CHANNELS 3 Zrotation Xrotation Yrotation
                  End Site
                  {
                    OFFSET -1.69225 -0.51767 -0.607171
                  }
                }
              }
            }
          }
        }
      }
      JOINT lCollar
      {
        OFFSET 2.68224 19.2634 -4.8768
        CHANNELS 3 Zrotation Xrotation Yrotation
        JOINT lShldr
        {
          OFFSET 8.77824 -1.95073 1.46304
          CHANNELS 3 Zrotation Xrotation Yrotation
          JOINT lForeArm
          {
            OFFSET 28.1742 -1.7115 0.48768
            CHANNELS 3 Zrotation Xrotation Yrotation
            JOINT lHand
            {
              OFFSET 22.5879 0.773209 7.07136
              CHANNELS 3 Zrotation Xrotation Yrotation
              JOINT lThumb1
              {
                OFFSET 1.2192 -0.487915 3.41376
                CHANNELS 3 Zrotation Xrotation Yrotation
                JOINT lThumb2
                {
                  OFFSET 3.37035 -0.52449 3.41376
                  CHANNELS 3 Zrotation Xrotation Yrotation
                  End Site
                  {
                    OFFSET 1.78271 -1.18214 1.43049
                  }
                }
              }
              JOINT lIndex1
              {
                OFFSET 7.75947 0.938293 5.60832
                CHANNELS 3 Zrotation Xrotation Yrotation
                JOINT lIndex2
                {
                  OFFSET 2.54057 -0.884171 1.56538
                  CHANNELS 3 Zrotation Xrotation Yrotation
                  End Site
                  {
                    OFFSET 1.62519 -0.234802 1.16502
                  }
                }
              }
              JOINT lMid1
              {
                OFFSET 8.24714 1.18213 3.41376
                CHANNELS 3 Zrotation Xrotation Yrotation
                JOINT lMid2
                {
                  OFFSET 3.10165 -0.590103 1.0647
                  CHANNELS 3 Zrotation Xrotation Yrotation
                  End Site
                  {
                    OFFSET 2.48547 -0.328903 0.83742
                  }
                }
              }
              JOINT lRing1
              {
                OFFSET 8.82822 0.546677 1.51678
                CHANNELS 3 Zrotation Xrotation Yrotation
                JOINT lRing2
                {
                  OFFSET 2.60934 -0.819778 -0.0198488
                  CHANNELS 3 Zrotation Xrotation Yrotation
                  End Site
                  {
                    OFFSET 2.33842 -0.294052 0.168128
                  }
                }
              }
              JOINT lPinky1
              {
                OFFSET 8.27202 -0.0477905 -0.4584
                CHANNELS 3 Zrotation Xrotation Yrotation
                JOINT lPinky2
                {
                  OFFSET 1.82734 -0.647385 -0.700984
                  CHANNELS 3 Zrotation Xrotation Yrotation
                  End Site
                  {
                    OFFSET 1.69225 -0.51767 -0.607171
                  }
                }
              }
            }
          }
        }
      }
    }
  }
  JOINT rButtock
  {
    OFFSET -8.77824 4.35084 1.2192
    CHANNELS 3 Zrotation Xrotation Yrotation
    JOINT rThigh
    {
      OFFSET 0 -1.70687 -2.19456
      CHANNELS 3 Zrotation Xrotation Yrotation
      JOINT rShin
      {
        OFFSET 0 -36.8199 0.73152
        CHANNELS 3 Zrotation Xrotation Yrotation
        JOINT rFoot
        {
          OFFSET 0.73152 -45.1104 -5.12064
          CHANNELS 3 Zrotation Xrotation Yrotation
          End Site
          {
            OFFSET -1.1221 -3.69964 12.103
          }
        }
      }
    }
  }
  JOINT lButtock
  {
    OFFSET 8.77824 4.35084 1.2192
    CHANNELS 3 Zrotation Xrotation Yrotation
    JOINT lThigh
    {
      OFFSET 0 -1.70687 -2.19456
      CHANNELS 3 Zrotation Xrotation Yrotation
      JOINT lShin
      {
        OFFSET 0 -36.8199 0.73152
        CHANNELS 3 Zrotation Xrotation Yrotation
        JOINT lFoot
        {
          OFFSET -0.73152 -45.1104 -5.12064
          CHANNELS 3 Zrotation Xrotation Yrotation
          End Site
          {
            OFFSET 1.1221 -3.69964 12.103
          }
        }
      }
    }
  }
}
MOTION
Frames:	4
Frame Time:	0.00833333
39.6265 80.6872 -57.43050000000001 -0.0 0.0 -0.0 -0.0 0.0 -0.0 0.0 -0.0 0.0 5.378815 19.190315 171.562156 2.722037 19.722949 -172.945368 -0.0 -0.0 0.0 -0.0 -0.0 0.0 2.185877 -15.733598 -3.202037 -172.733304 26.104787 173.05181 103.31915 72.747835 -123.979791 -163.561551 49.666099 137.585159 82.305236 -50.136196 32.954928 -110.811794 35.137971 74.415437 12.216524 -21.784719 -5.120188 -150.886567 9.932943 102.81242 -160.09819 -4.901163 142.968881 -176.943032 -49.194077 141.01404 -145.119209 0.22664 -179.199539 2.664955 -61.774046 -28.661439 -152.200278 37.330087 -147.582714 -23.398925 -38.809904 -26.891496 155.460052 -3.227798 -161.777534 -13.395777 15.541733 -17.867422 67.13744 -78.014597 97.425112 -130.852153 -64.44286 -113.078845 0.441471 0.435329 -0.069465 30.151057 23.557289 -26.973786 19.170572 24.114561 -13.380841 -60.824588 -62.564427 -23.271589 160.673322 -6.667841 -143.245105 6.247655 29.839228 -7.834677 -0.004679 1.85441 -0.582564 -0.890423 -26.590699 3.507234 -19.44814 67.282501 -13.092074 -15.855712 42.928798 -4.591258 -0.0 0.0 -0.0 -0.0 -0.0 -0.0 -4.262667 2.474012 -43.98554 -142.537621 -56.166329 -15.412695 -0.0 0.0 -0.0 -0.0 -0.0 -0.0 -7.020854 4.02674 -75.890629 84.797099 66.177991 -12.608264
39.9084 80.7914 -56.9508 0.0 -0.0 -0.0 -0.0 -4.771896 -180.0 0.0 -4.771896 180.0 11.990363 8.482615 93.076228 -7.823596 12.42674 -93.115607 -0.0 0.0 -0.0 -0.0 0.0 -0.0 -80.1661 68.371792 83.260848 -70.372238 86.569955 89.881867 -86.558499 -76.206685 -111.898033 79.867355 -70.570458 64.815676 -171.706035 -9.388422 89.948992 -128.147412 12.440404 62.305257 -0.327682 0.529888 0.186114 -176.581632 -18.246703 109.396036 -0.057679 0.167876 0.032027 1.207139 -3.626651 -0.450972 -0.014868 -1.323148 -0.415899 -72.120837 -87.128225 -83.457597 -24.989488 -37.659231 -24.060311 1.501085 -0.4321 1.346459 9.651699 34.836178 -11.199233 165.515307 -14.467457 177.248258 -178.556737 70.512417 175.840449 6.320226 19.755521 -0.41782 -57.544555 -43.951007 -16.645521 60.796375 -85.350447 107.670679 46.208543 39.652969 -36.318179 173.242016 -20.872746 -120.360062 -6.533059 -20.414937 2.717988 166.288833 -4.436936 -142.131458 -0.004679 1.85441 -0.582564 0.235473 -55.999057 8.04931 87.575606 -50.207376 85.929595 84.440077 -55.219792 85.24981 -0.0 0.0 -0.0 -0.0 -2.27635 -180.0 -3.818269 -2.872352 -145.985039 -75.702373 25.66827 11.999862 -0.0 0.0 -0.0 -0.0 -2.27635 -180.0 5.864878 -4.414665 123.647879 79.336972 47.338701 -10.086354
40.139 80.8973 -56.48459999999999 -0.0 0.0 -0.0 -0.0 0.0 -0.0 0.0 -0.0 0.0 5.378815 19.190315 171.562156 2.722037 19.722949 -172.945368 -0.0 -0.0 0.0 -0.0 -0.0 0.0 2.185877 -15.733598 -3.202037 -172.733304 26.104787 173.05181 -0.086048 6.87704 -32.38197 164.00963 -32.811242 140.497509 -4.166296 4.057514 0.783763 -122.340288 -15.899289 109.025766 45.282556 -63.865437 4.306423 -96.014628 38.662259 76.535446 -153.32078 13.628946 138.862343 -160.006413 -4.191775 144.137952 0.004873 1.771387 0.556475 -165.866381 -0.915452 172.225839 -145.543006 13.244722 -142.14923 -151.960613 33.194286 -145.560802 155.460052 -3.227798 -161.777534 -13.395777 15.541733 -17.867422 67.13744 -78.014597 97.425112 -130.852153 -64.44286 -113.078845 171.636729 -9.319279 -89.949624 71.630103 2.500902 -21.815858 108.427673 34.160977 -91.742903 177.555353 -51.616082 -120.733175 36.036059 51.723116 -29.832321 164.532495 -4.674281 -145.927145 0.007677 3.559155 -1.118768 166.00501 -1.134921 -172.596645 -34.803446 84.365325 -3.817838 -2.787444 3.891385 2.317436 -0.0 0.0 -0.0 -0.0 -0.0 -0.0 -4.262667 2.474012 -43.98554 -142.537621 -56.166329 -15.412695 -0.0 0.0 -0.0 -0.0 -0.0 -0.0 -7.020854 4.02674 -75.890629 84.797099 66.177991 -12.608264
40.3379 80.9414 -56.04280000000001 -0.0 0.0 -0.0 -0.0 0.0 -0.0 0.0 -0.0 0.0 5.378815 19.190315 171.562156 2.722037 19.722949 -172.945368 -0.0 -0.0 0.0 -0.0 -0.0 0.0 2.185877 -15.733598 -3.202037 -172.733304 26.104787 173.05181 103.31915 72.747835 -123.979791 -163.561551 49.666099 137.585159 -3.534755 3.45068 0.64676 -0.609472 1.430703 2.809779 -3.528385 5.495184 2.105627 -161.343897 4.186666 109.186864 -8.305325 20.652672 5.560806 -9.43588 26.038144 4.646477 -145.118942 0.185529 -179.186624 22.387013 51.484257 -2.982077 1.134951 3.04054 1.043633 -26.518388 -40.963856 -24.724112 155.460052 -3.227798 -161.777534 -13.395777 15.541733 -17.867422 67.13744 -78.014597 97.425112 -130.852153 -64.44286 -113.078845 78.493201 38.702306 -42.741368 153.79844 -34.76063 -82.748297 -10.746993 -19.048016 4.725035 47.236664 39.601105 -30.211553 10.975806 25.789868 -7.640203 56.498129 63.401307 -46.885306 145.119208 0.226618 179.199532 144.612311 -5.237472 178.497286 153.203778 41.295859 148.283783 -18.60705 41.191118 -4.451268 -0.0 0.0 -0.0 -0.0 -0.0 -0.0 -4.262667 2.474012 -43.98554 -142.537621 -56.166329 -15.412695 -0.0 0.0 -0.0 -0.0 -0.0 -0.0 -7.020854 4.02674 -75.890629 84.797099 66.177991 -12.608264
